# xmcd
#
# Track frame offsets:
#	165
#	21782
#	42579
#	64373
#	79661
#	93841
#	108720
#	126624
#	146186
#	163985
#	182071
#	197698
#
# Disc length: 2939 seconds
#
# Revision: 0
# Processed by: cddbd v1.5.2PL0 Copyright (c) Steve Scherf et al.
# Submitted via: EasyCDDAExtractor 2010.4.0.0
#
DISCID=b60b790c
DTITLE=Step Rideau and the Zydeco Outlaws - A Step Ahead
DYEAR=2005
DGENRE=zydeco
TTITLE0=More of yesterday
TTITLE1=We gonna party
TTITLE2=Allons c'est sa encore
TTITLE3=Gotta get up
TTITLE4=A step ahead
TTITLE5=You don't know my name
TTITLE6=My zydeco shoes
TTITLE7=Loan me your handkerchief
TTITLE8=Dry bayou drive
TTITLE9=Make me yours
TTITLE10=Are you gone
TTITLE11=Step's stomp down
EXTD=
EXTT0=
EXTT1=
EXTT2=
EXTT3=
EXTT4=
EXTT5=
EXTT6=
EXTT7=
EXTT8=
EXTT9=
EXTT10=
EXTT11=
PLAYORDER=
